<?xml version="1.0" encoding="UTF-8" standalone="no"?>
<!-- Created with Inkscape (http://www.inkscape.org/) -->

<svg
   width="140mm"
   height="46mm"
   viewBox="0 0 139.99998 46"
   version="1.1"
   id="svg1"
   xml:space="preserve"
   xmlns="http://www.w3.org/2000/svg"
   xmlns:svg="http://www.w3.org/2000/svg"><defs
     id="defs1"><rect
       x="49.578964"
       y="136.91119"
       width="99.18763"
       height="57.083958"
       id="rect36" /><rect
       x="49.578964"
       y="136.91119"
       width="91.028137"
       height="50.503963"
       id="rect35" /></defs><g
     id="layer1"
     transform="translate(-53.536746,-149.68102)"><text
       xml:space="preserve"
       transform="matrix(0.26458333,0,0,0.26458333,41.541096,112.78125)"
       id="text35"
       style="font-weight:900;font-size:33.3333px;line-height:1.3;font-family:Montserrat;-inkscape-font-specification:'Montserrat Heavy';text-align:justify;white-space:pre;shape-inside:url(#rect35);display:inline;fill:#da291c;stroke-width:11.339;paint-order:markers fill stroke"><tspan
         x="49.578125"
         y="218.88577"
         id="tspan6"><tspan
           dx="0 23.699991 21.766642 15.333286 23.399971"
           id="tspan5">getnf</tspan></tspan></text><text
       xml:space="preserve"
       transform="matrix(0.26458333,0,0,0.26458333,40.440943,112.78125)"
       id="text36"
       style="font-weight:900;font-size:33.3333px;line-height:1.3;font-family:Montserrat;-inkscape-font-specification:'Montserrat Heavy';text-align:justify;white-space:pre;shape-inside:url(#rect36);display:inline;fill:#da291c;stroke-width:11.339;paint-order:markers fill stroke"><tspan
         x="49.578125"
         y="225.46585"
         id="tspan8"><tspan
           dx="0 19.999994 19.999994 19.999996 19.999992"
           style="font-weight:normal;font-family:'JetBrainsMono Nerd Font Mono';-inkscape-font-specification:'JetBrainsMono Nerd Font Mono'"
           id="tspan7">getnf</tspan></tspan></text><g
       id="g23"
       transform="translate(-1.4192947,0.41458299)"><path
         style="fill:#000000;stroke-width:1.48341"
         d="m 120.78952,181.42006 c -2.10999,0 -3.76785,-0.60286 -4.97357,-1.80857 -1.20571,-1.20571 -1.80857,-2.86357 -1.80857,-4.97357 v -8.85445 h -5.5764 v -5.08661 h 5.5764 v -5.84017 h 5.65179 v 5.84017 h 8.10089 v 5.08661 h -8.10089 v 8.66606 c 0,0.55262 0.13816,1.00476 0.41447,1.35643 0.30143,0.35167 0.72845,0.5275 1.28107,0.5275 h 6.21695 v 5.0866 z"
         id="path23" /><path
         style="fill:#000000;stroke-width:1.48341"
         d="m 67.385769,170.29021 c -1.099633,-0.86496 -1.618433,-2.37985 -2.044392,-5.96954 -0.147629,-1.24408 -0.424385,-2.35837 -0.615023,-2.47619 -0.190637,-0.11778 -0.341762,-1.39598 -0.335834,-2.84032 l 0.01083,-2.62612 1.751006,-0.88309 c 1.618119,-0.81606 2.265158,-0.88204 8.525768,-0.86918 5.132823,0.0104 7.01257,0.14985 7.755974,0.57481 0.539667,0.3085 1.864304,0.56092 2.943637,0.56092 1.079333,0 2.403968,-0.25242 2.943637,-0.56092 0.743404,-0.42496 2.623151,-0.56428 7.755973,-0.57481 6.260615,-0.0133 6.907645,0.0531 8.525765,0.86918 l 1.75101,0.88309 0.0108,2.62612 c 0.006,1.44434 -0.145,2.72238 -0.3354,2.84005 -0.1904,0.11764 -0.47286,1.40857 -0.62769,2.86868 -0.33927,3.19937 -0.98917,4.8869 -2.21188,5.74331 -0.75095,0.52598 -2.01599,0.64003 -7.099997,0.64003 h -6.186235 l -1.182845,-1.07934 c -1.008513,-0.92025 -1.248119,-1.52952 -1.625736,-4.13383 -0.31619,-2.18065 -0.637757,-3.15878 -1.12404,-3.41903 -1.19666,-0.64043 -1.874467,0.385 -2.333221,3.52988 -0.362013,2.4817 -0.614316,3.11303 -1.607739,4.02298 l -1.178339,1.07934 h -6.220637 c -5.680478,0 -6.309613,-0.07 -7.245319,-0.80602 z m 12.449577,-3.80569 c 0.581185,-2.97204 1.066596,-7.2831 0.875983,-7.77983 -0.300555,-0.78324 -11.935285,-0.83045 -12.234905,-0.0497 -0.107814,0.28095 0.07435,2.3109 0.404802,4.51101 0.330451,2.20009 0.600818,4.08964 0.600818,4.199 0,0.10932 2.282005,0.19882 5.07112,0.19882 h 5.071119 z m 21.437974,0.89499 c 0,-0.10132 0.2794,-2.06506 0.62089,-4.36367 0.37283,-2.50956 0.47825,-4.32196 0.26386,-4.53635 -0.19636,-0.19636 -2.992575,-0.30797 -6.213798,-0.24802 l -5.85677,0.10903 0.06445,1.87498 c 0.03545,1.03123 0.272185,3.10649 0.526069,4.61169 l 0.461608,2.73673 h 5.066841 c 2.786763,0 5.06684,-0.0829 5.06684,-0.18436 z m -4.917206,11.54768 c -1.833689,0 -3.441309,-0.3391 -4.822855,-1.01731 -1.356427,-0.70333 -2.411427,-1.67042 -3.164998,-2.90126 -0.728452,-1.25595 -1.092677,-2.71285 -1.092677,-4.37071 v -4.89821 c 0,-1.65786 0.364225,-3.1022 1.092677,-4.33303 l 5.19964,12.09481 c 0.627976,0.60286 1.557381,0.90429 2.788213,0.90429 0.803809,0 1.507142,-0.12565 2.109999,-0.37679 0.602857,-0.25118 0.954523,-0.62797 1.055,-1.13036 h 5.538747 c -0.4019,1.80857 -1.39411,3.26548 -2.97661,4.37071 -1.5825,1.10525 -3.491542,1.65786 -5.727136,1.65786 z m -26.807196,3.20268 v -4.52142 h 5.840176 c 1.054999,0 1.858809,-0.26376 2.411427,-0.79126 0.577739,-0.5275 0.866607,-1.25595 0.866607,-2.18535 v -0.79125 l 0.03768,-3.08964 5.166567,-6.37064 c 0,2.26072 -0.444188,14.4841 -2.001569,15.79028 -1.53226,1.30618 -3.6297,1.95928 -6.292317,1.95928 z"
         id="path22" /><path
         style="fill:#000000;stroke-width:1.48341"
         d="m 81.856791,190.55327 c -0.149731,-0.14972 -0.272239,-1.1259 -0.272239,-2.16925 v -1.89701 h -2.184468 c -2.527794,0 -3.702805,-0.49818 -3.702805,-1.56993 0,-1.40587 1.21,-1.56994 11.578305,-1.56994 10.368303,0 11.578303,0.16407 11.578303,1.56994 0,1.06943 -1.173925,1.56993 -3.682292,1.56993 h -2.163958 l -0.118628,2.06055 -0.118627,2.06055 -5.320673,0.10874 c -2.92637,0.0597 -5.443179,-0.0133 -5.59291,-0.16355 z m 4.437581,-3.08504 c 0,-0.85973 -0.170078,-0.98122 -1.373698,-0.98122 -1.203621,0 -1.373697,0.12149 -1.373697,0.98122 0,0.85973 0.170076,0.98121 1.373697,0.98121 1.20362,0 1.373698,-0.12149 1.373698,-0.98121 z m 4.709818,0 c 0,-0.85973 -0.170077,-0.98122 -1.373698,-0.98122 -1.20362,0 -1.373695,0.12149 -1.373695,0.98122 0,0.85973 0.170075,0.98121 1.373695,0.98121 1.203621,0 1.373698,-0.12149 1.373698,-0.98121 z"
         id="path83" /><path
         d="m 150.02413,153.79885 c -0.62145,-0.0121 -1.29528,0.45865 -3.55757,1.84769 -0.42768,0.26234 -1.04921,0.63808 -1.38166,0.83476 -0.33239,0.19635 -0.82509,0.49533 -1.09435,0.66423 -0.26882,0.16923 -0.6965,0.42991 -0.94986,0.57958 -1.59162,0.94034 -2.48419,1.52195 -2.57119,1.67498 -0.0551,0.0968 -0.085,0.50311 -0.10567,1.43867 -0.0405,1.75315 0.0437,1.67377 -1.4104,1.34895 -1.2558,-0.28056 -2.10979,-0.22833 -2.93653,0.17895 -0.791,0.38987 -0.74666,0.63666 0.13724,0.76334 1.83737,0.26355 3.22304,1.37928 3.84655,3.09705 0.29473,0.81224 0.17205,0.92038 -0.74007,0.65484 -1.61089,-0.46906 -2.72584,-0.37935 -3.56647,0.28623 -0.54412,0.43104 -0.37246,0.62849 0.54582,0.6299 1.78178,0.002 2.85046,0.69719 3.68878,2.39739 0.4716,0.95621 0.43156,1.00435 -0.78934,0.95925 -1.30199,-0.0486 -2.01918,0.15344 -2.62823,0.73844 -0.44521,0.42797 -0.3174,0.55375 0.63768,0.62772 1.70898,0.13198 2.7811,0.53343 3.59136,1.34454 1.62847,1.63016 1.03536,3.94626 -1.09989,4.29601 -0.59938,0.098 -2.16201,0.0668 -3.19279,-0.0636 -1.71943,-0.21781 -2.58699,-0.0931 -3.57862,0.51533 -0.18583,0.11376 -0.32631,0.1919 -0.44505,0.23643 0.002,0.003 0.004,0.004 0.008,0.008 0.0121,0.0121 0.0202,0.0243 0.0283,0.0324 0.0162,0.0121 0.0283,0.0283 0.0405,0.0453 0.008,0.0121 0.0162,0.0202 0.0243,0.0283 0.0162,0.0122 0.0324,0.0283 0.0449,0.0478 0.008,0.008 0.0243,0.0283 0.0324,0.0409 0.0122,0.0162 0.0202,0.0283 0.0324,0.0433 0.0162,0.0202 0.0283,0.0421 0.0433,0.0619 0.0162,0.0243 0.0364,0.0437 0.0494,0.0688 0.0122,0.0202 0.0202,0.0364 0.0324,0.0538 0.0162,0.0243 0.0283,0.0462 0.0441,0.0704 0.0121,0.0202 0.0243,0.0409 0.0364,0.0607 0.0121,0.0243 0.0283,0.0453 0.0425,0.0692 0.0121,0.0202 0.0243,0.0324 0.0364,0.053 0.0122,0.0203 0.0283,0.0365 0.0364,0.0583 0.0121,0.0243 0.0364,0.0405 0.0482,0.0619 0.0121,0.0202 0.0283,0.0364 0.0437,0.0559 0.0162,0.0202 0.0324,0.0405 0.0486,0.0599 0.0202,0.0243 0.0405,0.0478 0.0587,0.0725 0.0202,0.0243 0.0405,0.0457 0.0619,0.066 0.0162,0.0162 0.0324,0.0283 0.0486,0.0437 0.0202,0.0162 0.0364,0.0324 0.0542,0.0486 0.0121,0.0121 0.0243,0.0283 0.0409,0.0421 0.0121,0.0121 0.0243,0.0243 0.0405,0.0364 0.0122,0.0121 0.0283,0.0203 0.0405,0.0324 0.0121,0.008 0.0283,0.0243 0.0433,0.0364 0.0121,0.0121 0.0243,0.0202 0.0405,0.0324 0.0162,0.0121 0.0364,0.0243 0.051,0.0421 0.0121,0.008 0.0243,0.0202 0.0364,0.0283 0.0162,0.0122 0.0324,0.0202 0.0453,0.0324 0.008,0.008 0.0162,0.0121 0.0202,0.0202 -0.002,-0.002 0.008,0.008 0.008,0.004 0.001,7.9e-4 0.002,0.002 0.003,0.003 0.0121,0.0162 0.0202,0.0202 0.0324,0.0364 0.008,0.0122 0.0243,0.0203 0.0364,0.0364 0.0162,0.0162 0.0324,0.0324 0.0478,0.0478 0.0162,0.0162 0.0324,0.0364 0.047,0.0559 0.0122,0.0162 0.0243,0.0324 0.0364,0.0498 0.008,0.0162 0.0243,0.0243 0.0283,0.0364 0.008,0.0162 0.0202,0.0283 0.0283,0.0409 0.008,0.0121 0.0162,0.0243 0.0202,0.0283 0.008,0.008 0.0162,0.0202 0.0283,0.0283 0.0162,0.0162 0.0283,0.0324 0.0449,0.0478 0.12024,-0.12267 0.57286,-0.0891 1.24823,0.11295 3.16312,0.94435 4.64564,1.02006 6.43709,0.32833 1.63328,-0.63059 3.20968,-2.27913 3.94229,-4.1233 0.54558,-1.37369 0.62962,-2.04286 0.6316,-5.0289 0.002,-2.59346 -0.0632,-2.35513 0.77828,-2.85734 0.92759,-0.55322 2.33007,-0.95184 3.0522,-0.86739 0.93864,0.11012 1.71291,0.37368 2.31488,0.78767 0.60027,0.41295 0.65946,0.62756 0.35627,1.29637 -0.098,0.21659 -0.44975,1.02645 -0.78104,1.79959 -0.33116,0.77314 -0.65658,1.51114 -0.72293,1.64069 -0.50728,0.99107 -1.5979,3.76554 -1.99384,5.0715 -0.36113,1.19118 -0.41339,1.38158 -0.4755,1.73809 -0.12631,0.72666 0.0729,0.7133 0.86464,-0.0571 1.48875,-1.44793 3.24441,-1.96003 5.38869,-1.57202 0.25303,0.0457 0.61578,0.1004 0.80597,0.12186 0.18988,0.0202 0.50683,0.0753 0.70464,0.12065 0.68047,0.15627 0.638,0.2012 1.9468,-2.04975 1.14584,-1.97141 1.21236,-2.12356 1.01908,-2.35201 -0.21093,-0.24898 -0.3761,-0.22064 -0.7578,0.12996 -0.4135,0.38015 -0.30849,0.36962 -1.77853,0.17813 -1.37936,-0.18016 -2.33043,-0.18785 -3.36826,-0.0283 -1.27365,0.19797 -1.30989,0.11497 -0.44007,-1.01629 0.965,-1.25463 3.27858,-4.90417 3.27858,-5.1717 0,-0.0202 0.14494,-0.35303 0.32226,-0.74006 0.49513,-1.08123 0.9454,-2.33152 1.03014,-2.86236 0.0243,-0.1425 0.0911,-0.46622 0.15222,-0.71962 0.1417,-0.58804 0.19999,-2.02209 0.11659,-2.88228 -0.31213,-3.2436 -2.67673,-5.88293 -6.68784,-7.46665 -0.66711,-0.26315 -1.02095,-0.44554 -1.39377,-0.45335 z m -3.3251,3.73861 c 0.2761,-0.0498 0.73743,0.0972 1.50838,0.29433 2.45237,0.62747 4.43637,2.07622 5.32116,3.88638 0.35586,0.72808 0.33238,0.81067 -0.39797,1.38827 -1.2113,0.95763 -2.67783,1.29563 -4.01978,0.92661 -0.8871,-0.24412 -2.2703,-0.97439 -2.63762,-1.39272 l -0.17813,-0.20242 v -2.32929 c 0,-1.85826 -0.0559,-2.48824 0.40403,-2.57116 z m -1.61413,0.30567 c 0.14412,-0.0162 0.24128,0.0202 0.28744,0.10444 0.10364,0.19312 0.0794,16.16997 -0.0243,16.95926 -0.27449,2.06465 -1.32479,3.36097 -2.94702,3.63785 -1.00098,0.17085 -1.18972,-0.0777 -0.48545,-0.63933 0.87063,-0.69465 1.47474,-1.70239 1.72927,-2.88338 0.068,-0.31659 0.14048,-0.62731 0.16153,-0.69079 0.0202,-0.0632 0.0518,-3.62562 0.0692,-7.91616 0.0364,-8.96966 -0.0364,-8.03329 0.64319,-8.37283 0.23319,-0.1166 0.42343,-0.1834 0.56739,-0.19919 z m 8.81346,5.81046 c 0.0162,-0.001 0.0773,0.0324 0.13239,0.0709 0.33845,0.24736 0.31456,1.83951 -0.051,3.40647 -0.31699,1.35867 -0.44695,1.50134 -1.09823,1.21171 -0.76123,-0.33845 -1.2326,-0.48901 -1.79291,-0.57294 -1.39296,-0.20849 -2.56994,-0.0587 -3.80448,0.48327 -0.92192,0.40485 -0.90281,0.44882 -0.90281,-2.09736 0,-2.62155 -0.0534,-2.52831 1.13033,-1.95954 1.96036,0.94179 4.17387,0.86095 5.73573,-0.20972 0.21862,-0.14979 0.56452,-0.3263 0.651,-0.33278 z"
         id="path1-2"
         style="fill:#ffce3e;fill-opacity:1;stroke-width:4.048;stroke-dasharray:none" /><path
         d="m 177.73053,154.45026 c -0.19605,0.0155 -0.36769,0.12825 -0.65514,0.35026 -1.48156,1.14354 -2.27678,1.74328 -2.48429,1.87428 -0.12903,0.0817 -0.43062,0.27509 -0.67027,0.42965 -0.99917,0.645 -2.53504,1.07507 -4.37259,1.22429 -1.09909,0.0895 -1.03144,-0.0233 -1.05252,1.78368 -0.0194,1.68191 -0.0116,1.65603 -0.52473,1.71112 -2.60634,0.27975 -4.06957,0.90487 -5.09853,2.17886 -0.70916,0.87802 -1.15656,2.21524 -0.87995,2.63238 0.11158,0.16777 0.13251,0.16118 0.47711,-0.16041 1.12734,-1.05291 2.09563,-1.36098 4.05953,-1.291 1.38601,0.0492 1.74576,0.0984 1.86722,0.25688 0.13251,0.17319 0.10849,11.73801 -0.0271,12.47526 -0.24991,1.36947 -0.71291,2.31331 -1.34245,2.73672 -0.12089,0.0814 -0.2224,0.12708 -0.3336,0.14413 0.0194,0.0233 0.0418,0.0477 0.0651,0.0682 0.0271,0.0271 0.0484,0.0542 0.0767,0.0767 0.031,0.0271 0.0593,0.0573 0.0899,0.0852 0.031,0.031 0.0659,0.0577 0.10034,0.0841 0.031,0.0271 0.0585,0.0566 0.0884,0.0837 0.0349,0.0271 0.0752,0.0531 0.11042,0.0833 0.031,0.0271 0.0624,0.0589 0.0957,0.0856 0.0349,0.0271 0.0697,0.0581 0.10346,0.0891 0.0446,0.0387 0.0903,0.0744 0.1356,0.11159 0.0512,0.0407 0.10539,0.0771 0.15847,0.11508 0.0601,0.0434 0.11857,0.0899 0.18095,0.12979 0.0232,0.0155 0.0449,0.0271 0.0678,0.0422 0.41024,-0.13329 0.84826,-0.27587 1.19747,-0.38397 5.21678,-1.61713 7.03806,-3.37188 7.68766,-7.4092 0.18211,-1.13157 0.23519,-2.21997 0.272,-5.5651 0.0155,-1.57586 0.043,-2.90898 0.0573,-2.96187 0.0581,-0.21466 0.19799,-0.23325 1.96758,-0.26154 l 1.71321,-0.0271 0.14801,-0.17474 c 0.1019,-0.1205 0.2069,-0.37932 0.33593,-0.82695 0.10306,-0.358 0.27083,-0.93253 0.37273,-1.2762 0.36227,-1.22355 0.48277,-1.16248 -2.30668,-1.16438 -1.93209,-0.001 -1.9928,-0.004 -2.12612,-0.11546 l -0.13794,-0.1143 v -1.44785 c 0,-1.87152 -0.0508,-1.80573 1.09615,-1.38531 2.88221,1.05675 5.61218,0.0349 6.83484,-2.55872 0.16273,-0.34522 0.27393,-0.52349 0.43193,-0.55309 0.003,-5.3e-4 0.008,0.003 0.0116,0.003 -0.003,-0.002 -0.004,-0.004 -0.008,-0.004 -0.0233,-0.0155 -0.0457,-0.031 -0.0686,-0.0488 -0.0155,-0.008 -0.0349,-0.0271 -0.0481,-0.031 -0.0155,-0.008 -0.0271,-0.0155 -0.0422,-0.0233 -0.0116,-0.008 -0.0232,-0.0155 -0.0349,-0.0233 -0.002,-5.3e-4 -0.0271,-0.0232 -0.0233,-0.0155 0.0116,0.008 -0.0116,-0.004 -0.0155,-0.004 -0.0155,-0.004 -0.031,-0.0155 -0.043,-0.0271 -0.008,-0.008 -0.0155,-0.0155 -0.0233,-0.0194 -0.0155,-0.008 -0.0271,-0.0155 -0.0387,-0.0271 -0.0116,-0.008 -0.0233,-0.0155 -0.0349,-0.0232 -0.008,-0.008 -0.0194,-0.0116 -0.0271,-0.0194 -0.0116,-0.008 -0.0233,-0.0155 -0.031,-0.0233 -0.008,-0.008 -0.0155,-0.0116 -0.0233,-0.0155 -0.004,-0.004 -0.0116,-0.008 -0.0155,-0.0116 -0.008,-0.004 -0.0194,-0.0116 -0.0271,-0.0155 -0.0155,-0.008 0.003,7e-5 -0.0155,-0.008 -0.0155,-0.008 -0.031,-0.0155 -0.0442,-0.0232 -0.0155,-0.008 -0.031,-0.0194 -0.0449,-0.0271 -0.0155,-0.008 -0.0271,-0.0155 -0.0426,-0.0232 -0.0116,-0.008 -0.0233,-0.0155 -0.0349,-0.0194 -0.0116,-0.008 -0.0271,-0.0194 -0.0399,-0.0271 -0.0116,-0.004 -0.0194,-0.0116 -0.031,-0.0194 -0.0116,-0.008 -0.0233,-0.0116 -0.031,-0.0194 -0.0155,-0.0116 5.2e-4,-4e-5 -0.0233,-0.0116 -0.008,-0.008 -0.0155,-0.0116 -0.0271,-0.0194 -0.0155,-0.008 -0.003,-0.002 -0.0233,-0.0116 -0.008,-0.004 -0.0155,-0.0116 -0.0233,-0.0155 -0.008,-0.004 -0.0194,-0.008 -0.0271,-0.0155 -0.008,-0.004 -0.0194,-0.0116 -0.031,-0.0155 -0.0116,-0.008 -0.0194,-0.0116 -0.031,-0.0194 -0.008,-0.004 -0.0155,-0.008 -0.0271,-0.0116 -0.0116,-0.004 -0.0194,-0.008 -0.031,-0.0155 -0.0116,-0.003 -0.0194,-0.0116 -0.031,-0.0116 -0.008,5.3e-4 -0.0387,-0.0155 -0.0271,-0.0116 -0.008,-0.002 -0.0194,-0.004 -0.0271,-0.008 -0.0116,-0.003 -0.0194,-0.004 -0.031,-0.008 -0.0194,-0.004 -0.0387,-0.008 -0.0546,-0.0155 -0.0155,-0.004 -0.031,-0.008 -0.0457,-0.0116 -0.0116,-5.3e-4 -0.0233,-0.008 -0.0349,-0.008 -0.0116,-0.001 -0.0232,-0.004 -0.0349,-0.008 -0.0116,-0.003 -0.0233,-0.004 -0.0349,-0.008 -0.008,-0.003 -0.0155,-0.004 -0.0233,-0.008 -0.0116,-0.002 -0.0194,-0.004 -0.031,-0.008 -0.0116,-1.9e-4 -0.0233,-0.008 -0.031,-0.008 -0.008,-10e-4 -0.0116,-0.002 -0.0194,-0.002 -0.0155,1.9e-4 -0.0271,-0.008 -0.0399,-0.008 -0.0116,-0.002 -0.0194,-0.004 -0.031,-0.008 -0.0116,-10e-4 -0.0194,-0.003 -0.031,-0.008 0.23325,0.21698 -0.1453,0.38436 -1.17643,0.51439 -1.3408,0.16893 -2.86501,-0.0802 -4.25923,-0.69556 -0.38474,-0.16971 -0.6047,-0.25262 -0.80068,-0.23712 z m -4.21707,4.32761 c 0.11818,-0.003 0.19257,0.0233 0.25185,0.081 0.15537,0.1484 0.14685,13.93082 -0.008,15.14894 -0.37854,2.95346 -1.5852,4.74238 -4.02942,5.97406 -1.13532,0.57205 -1.24343,0.42803 -0.40737,-0.54352 0.57688,-0.67076 1.32781,-1.78156 1.5251,-2.25677 0.44588,-1.07275 0.67258,-1.98979 0.86035,-3.48157 0.0845,-0.67022 0.0961,-1.42002 0.12049,-7.56759 l 0.0271,-6.82325 0.14259,-0.1298 c 0.0837,-0.0755 0.24526,-0.14452 0.39133,-0.16583 0.13677,-0.0194 0.41369,-0.0814 0.61454,-0.13599 0.23364,-0.0639 0.39509,-0.0969 0.51323,-0.0996 z"
         style="fill:#ffce3e;fill-opacity:1;stroke-width:3.77044"
         id="path1-5" /><text
         xml:space="preserve"
         style="font-weight:800;font-size:3.88056px;line-height:1.3;font-family:'JetBrainsMono Nerd Font Mono';-inkscape-font-specification:'JetBrainsMono Nerd Font Mono Ultra-Bold';text-align:justify;fill:#ffffff;fill-rule:evenodd;stroke-width:3.00011;paint-order:markers fill stroke"
         x="108.68288"
         y="190.03917"
         id="text22"><tspan
           id="tspan22"
           x="108.68288"
           y="190.03917"
           style="font-size:3.88056px;fill:#000000;stroke-width:3.00011">A better way to install NerdFonts</tspan></text></g></g></svg>
